<svg xmlns="http://www.w3.org/2000/svg" viewBox="0 0 337.87 68.48"><defs><style>.cls-1{fill:#fffefe;}.cls-2{fill:#f37129;}.cls-3{fill:#f4742c;}.cls-10,.cls-4{fill:#f37229;}.cls-5{fill:#fff8f3;}.cls-6{fill:#fff5ee;}.cls-7{fill:#33669a;}.cls-8{fill:#0c7e8b;}.cls-9{fill:#f26622;}.cls-10{font-size:36px;font-family:MVBoli, MV Boli;}</style></defs><title>vipmentors</title><g id="Layer_2" data-name="Layer 2"><g id="Layer_1-2" data-name="Layer 1"><path class="cls-1" d="M82.74,46.13c0,2.66.17,5.33,0,8-.23,2.83.74,4,3.61,3.63,1.31-.16,2.66,0,4,0,9.58-.24,14.42-7.19,11.36-16.26C99.9,36.24,92.82,33.06,85,34.84c-4.71,1.08-1.37,5.53-2.25,8.31A10.27,10.27,0,0,0,82.74,46.13ZM55.68,44.88c0-3.07,0-5.36,0-7.66,0-1.43-.07-2.67-2.08-2.53-1.59.11-1.87,1-1.87,2.33q0,9.23,0,18.47c0,1.34.35,2.18,1.93,2.22s2.1-.61,2-2.05c0-.66,0-1.33,0-2-.1-2.19-.33-4.71,2.11-5.59,2.25-.81,2.67,1.93,3.9,3.06a26.6,26.6,0,0,1,3.91,4.52c1.59,2.32,3.57,2.41,6.48,1.57-3.19-3.65-6-7.07-9.07-10.3-1.64-1.73-1.52-2.84.18-4.47,2.43-2.32,5.23-4.37,7.17-7.7-1.43,0-2.6-.35-3.37.06C62.69,37.1,60.32,41.6,55.68,44.88ZM30.74,46.27c0,2.49-.12,5,0,7.46.1,1.54-1.08,4,2.12,3.93,2.9-.1,1.83-2.47,1.68-3.72-.51-4.12.94-5.79,5.13-5.15a9.7,9.7,0,0,0,3.95-.3,6.32,6.32,0,0,0,5-6.08c.21-2.91-.79-5.38-3.49-6.58A18.11,18.11,0,0,0,32,35.18c-2.88,1-.75,5.64-1.22,8.61A16.16,16.16,0,0,0,30.74,46.27Zm-20.56,7c-2-6-3.83-10.94-5.41-16-.59-1.89-1.46-3.12-3.46-2.52-2.64.78-.56,2.54-.25,3.51,1.74,5.5,3.77,10.92,5.7,16.36.61,1.72,1.1,3.23,3.62,3.14,2.34-.08,2.63-1.58,3.17-3.08,1.91-5.28,3.85-10.55,5.59-15.88.4-1.23,2.31-3,0-4s-3.05.81-3.67,2.81C14,42.54,12.23,47.34,10.19,53.29Zm12.57-7.45c0,3.32,0,6.64,0,10,0,1.59.92,1.88,2.25,1.89s1.68-.73,1.67-1.87q0-9.47,0-18.94c0-1.3-.26-2.23-1.9-2.19s-2,.81-2,2.17C22.76,39.86,22.75,42.85,22.76,45.84Zm52,0c0,3.16,0,6.31,0,9.47,0,1.68.59,2.39,2.32,2.34s1.62-1.29,1.62-2.42q0-9,0-17.94c0-1.34.13-2.72-1.95-2.64-1.56.06-2,.88-2,2.22C74.76,39.91,74.75,42.9,74.75,45.89Z"/><path class="cls-2" d="M82.74,46.13a10.28,10.28,0,0,1,0-3c.88-2.78-2.46-7.24,2.25-8.31,7.78-1.78,14.86,1.4,16.61,6.59,3.06,9.08-1.78,16-11.36,16.26-1.33,0-2.68-.13-4,0-2.86.36-3.84-.8-3.61-3.63C82.91,51.46,82.74,48.79,82.74,46.13Zm15.89.09c-.11-6.79-3.6-8-9.91-8.28-2-.08-2.06,1.17-2.06,2.6,0,3.83,0,7.66,0,11.49,0,1.46.17,2.37,2.09,2.58C94.72,55.25,98.64,52,98.63,46.21Z"/><path class="cls-3" d="M55.68,44.88c4.64-3.29,7-7.78,11.31-10.07.77-.41,1.95-.06,3.37-.06-1.94,3.33-4.74,5.38-7.17,7.7-1.7,1.62-1.81,2.73-.18,4.47,3,3.22,5.88,6.65,9.07,10.3-2.91.84-4.89.75-6.48-1.57a26.6,26.6,0,0,0-3.91-4.52C60.46,50,60,47.26,57.79,48.07c-2.44.88-2.22,3.4-2.11,5.59,0,.66,0,1.33,0,2,.08,1.44-.48,2.09-2,2.05s-1.94-.88-1.93-2.22q0-9.23,0-18.47c0-1.29.28-2.22,1.87-2.33,2-.14,2.09,1.09,2.08,2.53C55.67,39.52,55.68,41.81,55.68,44.88Z"/><path class="cls-2" d="M30.74,46.27a16.17,16.17,0,0,1,0-2.49c.47-3-1.66-7.57,1.22-8.61a18.11,18.11,0,0,1,13.14.65c2.7,1.2,3.7,3.67,3.49,6.58a6.32,6.32,0,0,1-5,6.08,9.7,9.7,0,0,1-3.95.3c-4.18-.64-5.63,1-5.13,5.15.15,1.26,1.22,3.62-1.68,3.72-3.21.11-2-2.38-2.12-3.93C30.63,51.25,30.74,48.76,30.74,46.27Zm7.4-.55c3.45-.14,6.68.11,6.49-4.07S41,38.32,38.34,37.91c-3.22-.51-3.69,1.06-3.8,3.9C34.41,45.21,35.62,46.29,38.14,45.72Z"/><path class="cls-4" d="M10.19,53.29c2-5.95,3.8-10.75,5.31-15.62.62-2,1.48-3.72,3.67-2.81s.38,2.76,0,4c-1.74,5.34-3.68,10.6-5.59,15.88-.54,1.5-.83,3-3.17,3.08-2.52.09-3-1.41-3.62-3.14-1.93-5.45-4-10.86-5.7-16.36-.31-1-2.38-2.73.25-3.51,2-.59,2.87.64,3.46,2.52C6.35,42.35,8.15,47.31,10.19,53.29Z"/><path class="cls-4" d="M22.75,45.84c0-3,0-6,0-9,0-1.37.48-2.14,2-2.17s1.9.89,1.9,2.19q0,9.47,0,18.94c0,1.14-.33,1.88-1.67,1.87s-2.26-.29-2.25-1.89C22.77,52.49,22.76,49.16,22.75,45.84Z"/><path class="cls-4" d="M74.75,45.89c0-3,0-6,0-9,0-1.34.42-2.16,2-2.22,2.08-.08,1.95,1.3,1.95,2.64q0,9,0,17.94c0,1.14.19,2.37-1.62,2.42s-2.35-.67-2.32-2.34C74.8,52.2,74.75,49,74.75,45.89Z"/><path class="cls-5" d="M98.63,46.21c0,5.83-3.91,9-9.88,8.39-1.92-.21-2.1-1.12-2.09-2.58,0-3.83,0-7.66,0-11.49,0-1.43.08-2.68,2.06-2.6C95,38.19,98.51,39.42,98.63,46.21Z"/><path class="cls-6" d="M38.14,45.72c-2.52.57-3.73-.51-3.6-3.91.11-2.85.57-4.42,3.8-3.9,2.63.42,6.09-.4,6.29,3.74S41.6,45.58,38.14,45.72Z"/><path class="cls-7" d="M151.19,53.28c1-8,5.67-13.66,12.84-17.76,2.7-1.55,3.43-5.92,1.31-8.14-.71-.74-1.54-.54-2.38-.29-1.64.49-3.26,1-4.91,1.49s-3.51,1.35-4.27-1.37c-.66-2.34-.51-3.79,2.43-4.4,7.15-1.48,13.11-5.49,19.65-8.28,1-.42,1.92-.92,2.94-1.24,2.94-.94,4.68.4,4.19,3.26-.54,3.17-1,6.36-1.84,9.47-2.59,9.77,1.53,17.51,8.48,24.26,2.06,2,1.66,3.2.1,5-1.37,1.6-2.42,1.52-3.92.21a46,46,0,0,1-11.09-13.94c-1.21-2.39-2.52-2.45-4.76-1.48-6.31,2.74-11,6.65-11.91,13.5-.43,3.2-3.1,2.05-5,2.17S151,54.64,151.19,53.28Z"/><path class="cls-8" d="M143.08,55.68c-2.2.36-3.38-.55-3.83-2.6-.53-2.45-1.61-4.62-4.43-5.49-2.35-.73-4-.57-4.91,2.15C127.54,57,123.22,62.95,116,66.86a15.44,15.44,0,0,1-2,.94c-1.34.5-2.88,1.55-3.59-.7-.55-1.72-1.9-3.35,1-4.74,7.59-3.59,13.06-13.52,12.08-21.15-.21-1.67-1-1.69-2.39-1.14-2.58,1-5.23,1.85-7.83,2.82-2,.73-2.75-.22-3.18-1.82s-1.38-3.19,1.27-3.83a31.54,31.54,0,0,0,13.72-7,5.79,5.79,0,0,1,2.5-1.33q11.19-2.34,22.41-4.51c2.54-.49,2.61,1.42,3.09,3,.57,1.85-.39,2.61-2.14,2.93-3.17.58-6.32,1.27-9.51,1.73a3.46,3.46,0,0,0-3.35,3.09,11.31,11.31,0,0,1-.54,2.35c-1.09,2.69-.72,4.49,2.35,6.1,3.68,1.93,5,5.65,5.79,9.38C146.21,55,145.54,56,143.08,55.68Z"/><path class="cls-9" d="M165.49,58.55H191c1.74,0,3.68-.17,3.6,2.29-.08,2.27-2,2-3.54,2q-25.37,0-50.74,0c-1.77,0-3.65.06-3.59-2.34s2-2,3.53-2C148.69,58.53,157.09,58.54,165.49,58.55Z"/><path class="cls-7" d="M166.2,6.69A6.34,6.34,0,0,1,172.45,0a6.77,6.77,0,0,1,7,6.5,6.89,6.89,0,0,1-6.55,6.91A6.55,6.55,0,0,1,166.2,6.69Z"/><path class="cls-8" d="M132,26.77a6.15,6.15,0,0,1-6.48-6.4,6.38,6.38,0,0,1,6.3-6.66,6.62,6.62,0,0,1,6.75,6.66A6.33,6.33,0,0,1,132,26.77Z"/><text class="cls-10" transform="translate(197.49 56.48)">Mentors</text></g></g></svg>