<svg xmlns="http://www.w3.org/2000/svg" viewBox="0 0 337.85 68.49"><defs><style>.cls-1{fill:#f37129;}.cls-2{fill:#f4742c;}.cls-3,.cls-7{fill:#f37229;}.cls-4{fill:#33669a;}.cls-5{fill:#0c7e8b;}.cls-6{fill:#f26622;}.cls-7{isolation:isolate;font-size:36px;font-family:MVBoli, MV Boli;}</style></defs><title>vipmentors_1</title><g id="Layer_2" data-name="Layer 2"><g id="Layer_1-2" data-name="Layer 1"><g id="Layer_2-2" data-name="Layer 2"><g id="Layer_1-2-2" data-name="Layer 1-2"><path class="cls-1" d="M82.72,46.13a10.28,10.28,0,0,1,0-3c.88-2.78-2.46-7.24,2.25-8.31,7.78-1.78,14.86,1.4,16.61,6.59,3.06,9.08-1.78,16-11.36,16.26-1.33,0-2.68-.13-4,0-2.86.36-3.84-.8-3.61-3.63A74.26,74.26,0,0,0,82.72,46.13Zm15.89.09c-.11-6.79-3.6-8-9.91-8.28-2-.08-2.06,1.17-2.06,2.6V52c0,1.46.17,2.37,2.09,2.58,6,.64,9.89-2.61,9.88-8.4Z"/><path class="cls-2" d="M55.66,44.88c4.64-3.29,7-7.78,11.31-10.07.77-.41,1.95-.06,3.37-.06-1.94,3.33-4.74,5.38-7.17,7.7-1.7,1.62-1.81,2.73-.18,4.47,3,3.22,5.88,6.65,9.07,10.3-2.91.84-4.89.75-6.48-1.57a26.6,26.6,0,0,0-3.91-4.52C60.44,50,60,47.26,57.77,48.07c-2.44.88-2.22,3.4-2.11,5.59v2c.08,1.44-.48,2.09-2,2s-1.94-.88-1.93-2.22V37c0-1.29.28-2.22,1.87-2.33,2-.14,2.09,1.09,2.08,2.53C55.65,39.52,55.66,41.81,55.66,44.88Z"/><path class="cls-1" d="M30.72,46.27a16.17,16.17,0,0,1,0-2.49c.47-3-1.66-7.57,1.22-8.61a18.11,18.11,0,0,1,13.14.65c2.7,1.2,3.7,3.67,3.49,6.58a6.32,6.32,0,0,1-5,6.08,9.7,9.7,0,0,1-4,.3c-4.18-.64-5.63,1-5.13,5.15.15,1.26,1.22,3.62-1.68,3.72-3.21.11-2-2.38-2.12-3.93C30.61,51.25,30.72,48.76,30.72,46.27Zm7.4-.55c3.45-.14,6.68.11,6.49-4.07S41,38.32,38.32,37.91c-3.22-.51-3.69,1.06-3.8,3.9C34.39,45.21,35.6,46.29,38.12,45.72Z"/><path class="cls-3" d="M10.17,53.29c2-6,3.8-10.75,5.31-15.62.62-2,1.48-3.72,3.67-2.81s.38,2.76,0,4c-1.74,5.34-3.68,10.6-5.59,15.88-.54,1.5-.83,3-3.17,3.08-2.52.09-3-1.41-3.62-3.14-1.93-5.45-4-10.86-5.7-16.36-.31-1-2.38-2.73.25-3.51,2-.59,2.87.64,3.46,2.52C6.33,42.35,8.13,47.31,10.17,53.29Z"/><path class="cls-3" d="M22.73,45.84v-9c0-1.37.48-2.14,2-2.17s1.9.89,1.9,2.19V55.8c0,1.14-.33,1.88-1.67,1.87s-2.26-.29-2.25-1.89C22.75,52.49,22.74,49.16,22.73,45.84Z"/><path class="cls-3" d="M74.73,45.89v-9c0-1.34.42-2.16,2-2.22,2.08-.08,1.95,1.3,1.95,2.64V55.25c0,1.14.19,2.37-1.62,2.42s-2.35-.67-2.32-2.34C74.78,52.2,74.73,49,74.73,45.89Z"/><path class="cls-4" d="M151.17,53.28c1-8,5.67-13.66,12.84-17.76,2.7-1.55,3.43-5.92,1.31-8.14-.71-.74-1.54-.54-2.38-.29-1.64.49-3.26,1-4.91,1.49s-3.51,1.35-4.27-1.37c-.66-2.34-.51-3.79,2.43-4.4,7.15-1.48,13.11-5.49,19.65-8.28,1-.42,1.92-.92,2.94-1.24,2.94-.94,4.68.4,4.19,3.26-.54,3.17-1,6.36-1.84,9.47-2.59,9.77,1.53,17.51,8.48,24.26,2.06,2,1.66,3.2.1,5-1.37,1.6-2.42,1.52-3.92.21A46,46,0,0,1,174.7,41.55c-1.21-2.39-2.52-2.45-4.76-1.48-6.31,2.74-11,6.65-11.91,13.5-.43,3.2-3.1,2-5,2.17S151,54.64,151.17,53.28Z"/><path class="cls-5" d="M143.06,55.68c-2.2.36-3.38-.55-3.83-2.6-.53-2.45-1.61-4.62-4.43-5.49-2.35-.73-4-.57-4.91,2.15C127.52,57,123.2,63,116,66.86a15.44,15.44,0,0,1-2,.94c-1.34.5-2.88,1.55-3.59-.7-.55-1.72-1.9-3.35,1-4.74,7.59-3.59,13.06-13.52,12.08-21.15-.21-1.67-1-1.69-2.39-1.14-2.58,1-5.23,1.85-7.83,2.82-2,.73-2.75-.22-3.18-1.82s-1.38-3.19,1.27-3.83a31.54,31.54,0,0,0,13.72-7,5.79,5.79,0,0,1,2.5-1.33Q138.75,26.57,150,24.4c2.54-.49,2.61,1.42,3.09,3,.57,1.85-.39,2.61-2.14,2.93-3.17.58-6.32,1.27-9.51,1.73a3.46,3.46,0,0,0-3.35,3.09,11.31,11.31,0,0,1-.54,2.35c-1.09,2.69-.72,4.49,2.35,6.1,3.68,1.93,5,5.65,5.79,9.38C146.19,55,145.52,56,143.06,55.68Z"/><path class="cls-6" d="M165.47,58.55H191c1.74,0,3.68-.17,3.6,2.29-.08,2.27-2,2-3.54,2H140.3c-1.77,0-3.65.06-3.59-2.34s2-2,3.53-2Q152.88,58.55,165.47,58.55Z"/><path class="cls-4" d="M166.18,6.69a6.34,6.34,0,0,1,6-6.68h.27a6.77,6.77,0,0,1,7,6.5,6.89,6.89,0,0,1-6.55,6.91,6.55,6.55,0,0,1-6.7-6.4Q166.17,6.86,166.18,6.69Z"/><path class="cls-5" d="M132,26.77A6.15,6.15,0,0,1,125.5,21q0-.3,0-.59a6.38,6.38,0,0,1,6.09-6.65h.21a6.62,6.62,0,0,1,6.75,6.49q0,.09,0,.17a6.33,6.33,0,0,1-6.25,6.4Z"/><text class="cls-7" transform="translate(197.47 56.48)">Mentors</text></g></g></g></g></svg>